# xmcd
#
# Track frame offsets: 
#        150
#        18600
#        35105
#        49955
#        59780
#        85130
#        96155
#        113705
#        127805
#        143180
#        157955
#
# Disc length: 2331 seconds
#
# Revision: 0
# Processed by: cddbd v1.5.2PL0 Copyright (c) Steve Scherf et al.
# Submitted via: ExactAudioCopy v1.0b3
#
DISCID=9709190b
DTITLE=Kinky Friedman - Sold American
DYEAR=1973
DGENRE=Comedy
TTITLE0=We Reserve The Right To Refuse Service To You
TTITLE1=Highway Cafe
TTITLE2=Sold American
TTITLE3=Flyin' Down The Freeway
TTITLE4=Ride 'Em Jewboy
TTITLE5=Get your Biscuits in the Oven and your Buns in the Bed
TTITLE6=High On Jesus
TTITLE7=The Ballad of Charles Whitman
TTITLE8=Top Ten Commandments
TTITLE9=Western Union Wire
TTITLE10=Silver Eagle Experss
EXTD=
EXTT0=
EXTT1=
EXTT2=
EXTT3=
EXTT4=
EXTT5=
EXTT6=
EXTT7=
EXTT8=
EXTT9=
EXTT10=
PLAYORDER=
